<svg width="135" height="29" viewBox="0 0 135 29" fill="none" xmlns="http://www.w3.org/2000/svg">
<path d="M37.7 6.2H44.578V2.4H33.52V29H37.7V18.018H43.096V14.218H37.7V6.2ZM46.5825 29H57.6405V25.2H50.7625V2.4H46.5825V29ZM59.4595 29H63.6395V2.4H59.4595V29ZM76.7658 2.4L73.5358 12.204L70.3818 2.4H66.0498L70.4198 15.32L65.7458 29H69.6598L73.1178 18.474L76.5378 29H80.9458L76.2718 15.32L80.6418 2.4H76.7658Z" fill="white"/>
<path d="M87.2039 17.6H91.9539V29H96.2099V2.4H91.9539V13.8H87.2039V2.4H83.0239V29H87.2039V17.6ZM99.2407 29H103.421V2.4H99.2407V29ZM109.593 2.4H105.375L109.479 29H115.711L119.815 2.4H115.977L112.785 24.098L109.593 2.4ZM125.946 6.2H133.166V2.4H121.766V29H133.166V25.2H125.946V17.41H131.684V13.61H125.946V6.2Z" fill="#FF9000"/>
<g clip-path="url(#clip0_2_37)">
<path d="M23.7135 10.662C23.1759 20.0692 27.2076 27.3262 15.6501 26.7887C12.9624 17.1127 3.82389 22.757 2.74878 17.3814C2.74878 8.24298 12.4248 9.85565 15.9189 5.28642C15.3814 -1.16426 25.3262 6.09275 23.7135 10.662Z" fill="white"/>
<path d="M26.4501 9.02567L23.5383 3.20214C23.4172 2.96023 23.2312 2.75679 23.0011 2.6146C22.771 2.47241 22.5058 2.39707 22.2353 2.39703H14.9559C14.4041 2.39703 13.9003 2.70859 13.6528 3.20214L11.1444 8.22056H4.76469C4.21291 8.22056 3.70917 8.53212 3.46167 9.02567L0.549906 14.8492C0.448692 15.0515 0.395996 15.2745 0.395996 15.5007C0.395996 15.7269 0.448692 15.9499 0.549906 16.1522L3.46167 21.9757C3.70917 22.4678 4.21291 22.7794 4.76469 22.7794H11.1444L13.6543 27.7978C13.7749 28.0398 13.9606 28.2434 14.1905 28.3856C14.4204 28.5279 14.6855 28.6031 14.9559 28.6029H22.2353C22.7871 28.6029 23.2908 28.2914 23.5383 27.7978L26.4501 21.9743C26.5513 21.772 26.604 21.549 26.604 21.3228C26.604 21.0966 26.5513 20.8735 26.4501 20.6713L23.863 15.5L26.4486 10.3272C26.5498 10.1253 26.6026 9.90252 26.6029 9.67662C26.6031 9.45072 26.5508 9.22786 26.4501 9.02567ZM15.8556 5.3088H21.3355L23.5194 9.67645L21.3355 14.0441H15.8556L13.6718 9.67645L15.8556 5.3088ZM3.4806 15.5L5.66442 11.1323H11.1444L13.3282 15.5L11.1444 19.8676H5.66442L3.4806 15.5ZM21.3355 25.6912H15.8556L13.6718 21.3235L15.8556 16.9559H21.3355L23.5194 21.3235L21.3355 25.6912Z" fill="#FF9000"/>
</g>
<defs>
<clipPath id="clip0_2_37">
<rect width="27" height="27" fill="white" transform="translate(0 2)"/>
</clipPath>
</defs>
</svg>
